<?xml version="1.0" encoding="UTF-8"?>
<svg width="24px" height="24px" viewBox="-2.5 -5 15 15" version="1.1" xmlns="http://www.w3.org/2000/svg" xmlns:xlink="http://www.w3.org/1999/xlink">
    <!-- Generator: Sketch 52.3 (67297) - http://www.bohemiancoding.com/sketch -->
    <title>icon_chart</title>
    <desc>Created with Sketch.</desc>
    <g id="icon_chart" stroke="none" stroke-width="1" fill="none" fill-rule="evenodd">
        <g fill="#A5A5A5">
            <path d="M0.75,6 C0.942,6 1.134,5.927 1.28,5.78 L3.75,3.311 L5.22,4.78 C5.513,5.073 5.987,5.073 6.28,4.78 L9.78,1.28 C9.85,1.211 9.904,1.128 9.942,1.037 C10.018,0.854 10.018,0.646 9.942,0.463 C9.866,0.28 9.72,0.134 9.537,0.058 C9.445,0.02 9.348,0 9.25,0 L7.25,0 C6.946,0 6.673,0.183 6.557,0.463 C6.441,0.743 6.505,1.066 6.72,1.28 L7.189,1.75 L5.75,3.189 L4.28,1.72 C3.987,1.427 3.513,1.427 3.22,1.72 L0.22,4.72 C-0.073,5.013 -0.073,5.487 0.22,5.78 C0.366,5.927 0.558,6 0.75,6" id="Fill-3"></path>
        </g>
    </g>
</svg>
